# xmcd
#
# Track frame offsets:
#	150
#	12692
#	26695
#	39659
#	53244
#	67905
#	80062
#	92504
#	106196
#	119158
#	128236
#	143342
#	154177
#	166498
#	177475
#
# Disc length: 2528 seconds
#
# Revision: 1
# Processed by: cddbd v1.5.2PL0 Copyright (c) Steve Scherf et al.
# Submitted via: audiograbber 1.83.01
#
DISCID=cc09de0f
DTITLE=Variuos - Country Legends
DYEAR=1900
DGENRE=Country
TTITLE0=Rodgers Jimmie - Waiting for a Train
TTITLE1=Monroe Bill - Blue Moon of Kentucky
TTITLE2=Acuff Roy - Wabash Cannonball
TTITLE3=Wills Bob - Faded Love
TTITLE4=Foley Red - Old Shep
TTITLE5=Laine Frankie - High Noon (Do Not Forsake Me)
TTITLE6=Williams Hank - Move It on Over
TTITLE7=Travis Merle - Divorce Me C.O.D.
TTITLE8=Snow Hank - I'm Movin' On
TTITLE9=Laine Frankie - Rawhide
TTITLE10=Nelson Willie - Face of a Fighter
TTITLE11=Lewis Jerry Lee - Will the Circle Be Unbroken?
TTITLE12=Williams Hank - Your Cheatin' Heart
TTITLE13=Bruce Ed - King of the Road
TTITLE14=Cash Johnny - I Walk the Line
EXTD=
EXTT0=
EXTT1=
EXTT2=
EXTT3=
EXTT4=
EXTT5=
EXTT6=
EXTT7=
EXTT8=
EXTT9=
EXTT10=
EXTT11=
EXTT12=
EXTT13=
EXTT14=
PLAYORDER=
